<svg width="195" height="32" viewBox="0 0 195 32" fill="none" xmlns="http://www.w3.org/2000/svg">
<path d="M28.4683 29.7869L27.3013 30.9724C24.7029 29.0334 22.1331 26.8755 19.1694 25.4949C15.2925 23.6888 12.301 24.0201 8.59521 25.99C6.02749 27.355 3.73144 29.229 1.41846 30.9724L0.219238 29.7996L14.3403 16.7117L28.4683 29.7869ZM28.479 1.32009L14.3599 14.3836L0.233887 1.31033L1.3999 0.123804C3.71481 1.86677 5.97441 3.73354 8.5415 5.1072C12.631 7.29556 15.7857 7.36962 19.9175 5.21462C22.5571 3.83787 24.9232 1.9184 27.2827 0.123804L28.479 1.32009Z" fill="#FFA548"/>
<path d="M102.725 4.89726C104.35 4.89732 105.836 5.18826 107.181 5.77031C108.526 6.33244 109.681 7.1059 110.645 8.08964C111.608 9.07329 112.36 10.2277 112.902 11.5525C113.444 12.8574 113.716 14.2525 113.716 15.7381V15.7986C113.716 17.2842 113.444 18.6895 112.902 20.0144C112.36 21.3193 111.598 22.4736 110.614 23.4773C109.631 24.4611 108.466 25.2447 107.121 25.8269C105.776 26.4091 104.29 26.7 102.664 26.7C101.038 26.7 99.5521 26.4184 98.207 25.8562C96.862 25.2741 95.7078 24.4913 94.7441 23.5076C93.7805 22.5239 93.0274 21.3798 92.4854 20.075C91.9433 18.7501 91.6719 17.3446 91.6719 15.8592V15.7986C91.6719 14.3131 91.9434 12.9179 92.4854 11.6131C93.0274 10.288 93.7907 9.13295 94.7744 8.14921C95.7581 7.14557 96.9226 6.35245 98.2676 5.77031C99.6126 5.1882 101.099 4.89726 102.725 4.89726ZM56.1328 5.25859C57.3574 5.25859 58.4616 5.42902 59.4453 5.77031C60.449 6.09147 61.2921 6.56313 61.9746 7.18534C62.6773 7.8077 63.2099 8.5506 63.5713 9.41386C63.9527 10.2771 64.1436 11.2414 64.1436 12.3055V12.365C64.1436 13.5495 63.9221 14.5935 63.4805 15.4969C63.0388 16.3802 62.4367 17.1231 61.6738 17.7254C60.911 18.3276 60.0179 18.7899 58.9941 19.1111C57.9703 19.4123 56.8754 19.5623 55.7109 19.5623H51.5254V26.3387H47.8213V5.25859H56.1328ZM73.1357 14.0213H83.1934V5.25859H86.8975V26.3387H83.1934V17.4549H73.1357V26.3387H69.4316V5.25859H73.1357V14.0213ZM133.515 8.57109H122.191V14.0516H133.515V17.3641H122.191V23.0262H133.515V26.3387H118.488V5.25859H133.515V8.57109ZM154.883 19.8338V5.25859H158.526V26.3387H155.425L143.801 11.3416V26.3387H140.156V5.25859H143.59L154.883 19.8338ZM169.357 26.3387H165.653V5.25859H169.357V26.3387ZM184.808 12.8172L190.077 5.25859H194.323L186.976 15.5574L194.625 26.3387H190.258L184.717 18.3582L179.146 26.3387H174.899L182.579 15.618L175.201 5.25859H179.567L184.808 12.8172ZM102.664 8.2996C101.62 8.2996 100.656 8.50062 99.7725 8.90214C98.9093 9.28358 98.1672 9.81631 97.5449 10.4988C96.9226 11.1613 96.4307 11.944 96.0693 12.8475C95.7281 13.7508 95.5567 14.7143 95.5566 15.7381V15.7986C95.5567 16.8225 95.7281 17.7961 96.0693 18.7195C96.4307 19.6229 96.9226 20.4159 97.5449 21.0984C98.1873 21.7609 98.9497 22.2936 99.833 22.6951C100.716 23.0966 101.681 23.2967 102.725 23.2967C103.768 23.2966 104.722 23.1058 105.585 22.7244C106.468 22.3229 107.221 21.7912 107.844 21.1287C108.466 20.4462 108.948 19.6531 109.289 18.7498C109.65 17.8465 109.831 16.8829 109.831 15.8592V15.7986C109.831 14.7749 109.65 13.8113 109.289 12.908C108.948 11.9845 108.456 11.1906 107.813 10.5281C107.191 9.84561 106.438 9.30363 105.555 8.90214C104.671 8.5007 103.708 8.29962 102.664 8.2996ZM51.5254 16.2195H55.832C57.2372 16.2195 58.3415 15.8684 59.1445 15.1658C59.9675 14.4632 60.3788 13.5598 60.3789 12.4559V12.3953C60.3789 11.1506 59.9676 10.2169 59.1445 9.59452C58.3215 8.95214 57.2171 8.63071 55.832 8.63066H51.5254V16.2195Z" fill="white"/>
</svg>
