<svg xmlns="http://www.w3.org/2000/svg" width="32" height="32" viewBox="0 0 32 32">
  <rect width="32" height="32" rx="7" fill="#0c0a09"/>
  <svg x="5.5" y="5.5" width="21" height="21" viewBox="-1.5 4.5 31 31">
    <path d="M28.4683 29.7869L27.3013 30.9724C24.7029 29.0334 22.1331 26.8755 19.1694 25.4949C15.2925 23.6888 12.301 24.0201 8.59521 25.99C6.02749 27.355 3.73144 29.229 1.41846 30.9724L0.219238 29.7996L14.3403 16.7117L28.4683 29.7869Z" fill="#FFA548"/>
    <path d="M28.479 1.32009L14.3599 14.3836L0.233887 1.31033L1.3999 0.123804C3.71481 1.86677 5.97441 3.73354 8.5415 5.1072C12.631 7.29556 15.7857 7.36962 19.9175 5.21462C22.5571 3.83787 24.9232 1.9184 27.2827 0.123804L28.479 1.32009Z" fill="#FFA548" transform="translate(0 8)"/>
  </svg>
</svg>
